<?xml version="1.0" encoding="UTF-8" standalone="no"?>
<svg
   width="48"
   height="48"
   viewBox="0 0 48 48"
   version="1.1"
   id="svg1"
   xmlns="http://www.w3.org/2000/svg"
   xmlns:svg="http://www.w3.org/2000/svg">
  <defs
     id="defs1" />
  <path
     d="M 0.01291787,48.098624 47.516509,-0.6622162 Z"
     style="fill:none;stroke:#000000;stroke-width:2.1747"
     id="path2" />
  <path
     style="fill:#000000"
     d="M 44.073483,0.54523896 8.7238234,1.1813511"
     id="path1" />
  <path
     style="fill:#000000"
     d="M 13.449228,0.72698528 13.085735,1.5448437"
     id="path3" />
  <path
     style="fill:#000000"
     d="M 11.268272,13.267481 26.080597,4.3619117"
     id="path4" />
  <path
     style="fill:#000000"
     d="m 13.085735,11.631765 3.362307,7.088106"
     id="path5" />
  <path
     style="fill:#000000;stroke:#000000;stroke-width:1.02059;stroke-opacity:1"
     d="M 47.072748,0.45432555 0.27216899,0.36353289"
     id="path6" />
  <path
     style="fill:#000000;stroke:#000000;stroke-width:1.44097;stroke-opacity:1"
     d="M 0.25088056,0.12311486 -0.1233852,47.402921 5.3034686,0.58125252"
     id="path7" />
  <path
     style="fill:#ffffff;stroke:#000000;stroke-width:0.0908732;stroke-opacity:1"
     d="M 0.90462463,45.414224 C 0.9023658,45.351549 2.0564818,35.311201 3.4693268,23.102338 L 6.0381359,0.90440579 25.123964,0.9645633 C 35.62117,0.99764994 44.218373,1.0310574 44.228859,1.0388021 44.244689,1.0504927 7.556036,38.736779 2.4878615,43.914817 1.6193401,44.802166 0.90688346,45.476899 0.90462463,45.414224 Z"
     id="path8" />
</svg>
