<svg xmlns="http://www.w3.org/2000/svg" xmlns:xlink="http://www.w3.org/1999/xlink" width="960" zoomAndPan="magnify" viewBox="0 0 720 719.999996" height="960" preserveAspectRatio="xMidYMid meet" version="1.0"><path fill="#1f1f1f" d="M 258.085938 378.847656 L 480.664062 378.847656 L 480.664062 348.066406 L 258.085938 348.066406 Z M 258.085938 464.089844 L 480.664062 464.089844 L 480.664062 433.308594 L 258.085938 433.308594 Z M 258.085938 549.328125 L 388.320312 549.328125 L 388.320312 518.546875 L 258.085938 518.546875 Z M 203.632812 646.40625 C 189.464844 646.40625 177.632812 641.660156 168.140625 632.167969 C 158.652344 622.679688 153.90625 610.847656 153.90625 596.679688 L 153.90625 142.070312 C 153.90625 127.902344 158.652344 116.070312 168.140625 106.582031 C 177.632812 97.089844 189.464844 92.34375 203.632812 92.34375 L 446.328125 92.34375 L 584.84375 230.859375 L 584.84375 596.679688 C 584.84375 610.847656 580.097656 622.679688 570.605469 632.167969 C 561.117188 641.660156 549.285156 646.40625 535.117188 646.40625 Z M 430.9375 246.25 L 430.9375 123.125 L 203.632812 123.125 C 198.894531 123.125 194.550781 125.097656 190.605469 129.042969 C 186.660156 132.988281 184.6875 137.332031 184.6875 142.070312 L 184.6875 596.679688 C 184.6875 601.417969 186.660156 605.761719 190.605469 609.707031 C 194.550781 613.652344 198.894531 615.625 203.632812 615.625 L 535.117188 615.625 C 539.855469 615.625 544.199219 613.652344 548.144531 609.707031 C 552.089844 605.761719 554.0625 601.417969 554.0625 596.679688 L 554.0625 246.25 Z M 184.6875 123.125 L 184.6875 246.25 L 184.6875 123.125 L 184.6875 615.625 Z M 184.6875 123.125 " fill-opacity="1" fill-rule="nonzero"/><path fill="#1f1f1f" d="M 495.867188 698.480469 L 491.019531 659.703125 C 486.742188 658.414062 482.113281 656.386719 477.136719 653.617188 C 472.160156 650.851562 467.929688 647.886719 464.441406 644.726562 L 428.679688 659.9375 L 403.675781 616.367188 L 434.585938 593.058594 C 434.191406 590.636719 433.863281 588.140625 433.605469 585.570312 C 433.347656 583.003906 433.21875 580.503906 433.21875 578.082031 C 433.21875 575.828125 433.347656 573.460938 433.605469 570.980469 C 433.863281 568.496094 434.191406 565.695312 434.585938 562.585938 L 403.675781 539.28125 L 428.679688 496.226562 L 464.183594 511.175781 C 468.1875 507.84375 472.519531 504.835938 477.175781 502.15625 C 481.832031 499.472656 486.363281 497.402344 490.761719 495.941406 L 495.867188 457.167969 L 545.882812 457.167969 L 550.730469 496.199219 C 555.871094 498.003906 560.410156 500.074219 564.355469 502.414062 C 568.296875 504.75 572.359375 507.671875 576.539062 511.175781 L 613.070312 496.226562 L 638.074219 539.28125 L 606.132812 563.359375 C 606.871094 566.125 607.285156 568.667969 607.371094 570.980469 C 607.457031 573.289062 607.5 575.570312 607.5 577.824219 C 607.5 579.902344 607.414062 582.097656 607.242188 584.410156 C 607.070312 586.722656 606.675781 589.519531 606.054688 592.800781 L 637.484375 616.367188 L 612.476562 659.9375 L 576.539062 644.46875 C 572.359375 647.972656 568.15625 650.980469 563.929688 653.492188 C 559.703125 656 555.300781 657.984375 550.730469 659.445312 L 545.882812 698.480469 Z M 520.511719 611.339844 C 529.863281 611.339844 537.789062 608.089844 544.285156 601.59375 C 550.78125 595.097656 554.027344 587.171875 554.027344 577.824219 C 554.027344 568.472656 550.78125 560.546875 544.285156 554.054688 C 537.789062 547.554688 529.863281 544.308594 520.511719 544.308594 C 511.113281 544.308594 503.175781 547.554688 496.703125 554.054688 C 490.234375 560.546875 486.996094 568.472656 486.996094 577.824219 C 486.996094 587.171875 490.234375 595.097656 496.703125 601.59375 C 503.175781 608.089844 511.113281 611.339844 520.511719 611.339844 Z M 520.511719 611.339844 " fill-opacity="1" fill-rule="nonzero"/></svg>