<?xml version="1.0" encoding="UTF-8" standalone="no"?>
<svg
   height="24"
   viewBox="0 -960 960 960"
   width="24"
   fill="#1f1f1f"
   version="1.1"
   id="svg1"
   xmlns="http://www.w3.org/2000/svg"
   xmlns:svg="http://www.w3.org/2000/svg">
  <defs
     id="defs1" />
  <path
     d="m 414.79552,-259.29922 328.25992,-328.24862 -80.52809,-81.17223 -247.73183,247.73182 -121.15378,-121.16507 -80.52809,81.17224 z m 65.20447,253.0431168 q -98.90287,0 -185.22818,-37.2467888 Q 208.45779,-80.749677 144.60938,-144.6094 80.749681,-208.4578 43.502893,-294.7718 6.2561031,-381.09711 6.2561031,-480 q 0,-98.90287 37.2467899,-185.22819 37.246788,-86.31401 101.106487,-150.16243 63.84841,-63.8597 150.16243,-101.10649 86.32531,-37.24678 185.22818,-37.24678 98.90289,0 185.22821,37.24678 86.31399,37.24679 150.1624,101.10649 63.85973,63.84842 101.1065,150.16243 37.2468,86.32532 37.2468,185.22819 0,98.90289 -37.2468,185.2282 -37.24677,86.314 -101.1065,150.1624 -63.84841,63.859723 -150.1624,101.106508 -86.32532,37.2467888 -185.22821,37.2467888 z m 0,-119.7863868 q 148.87415,0 251.41584,-102.54168 Q 833.95751,-331.12586 833.95751,-480 q 0,-148.87415 -102.54168,-251.41583 -102.54169,-102.54167 -251.41584,-102.54167 -148.87414,0 -251.41582,102.54167 Q 126.0425,-628.87415 126.0425,-480 q 0,148.87414 102.54167,251.41583 102.54168,102.54168 251.41582,102.54168 z m 0,-353.95751 z"
     id="path1"
     style="stroke-width:1.13006" />
  <path
     style="fill:#ffffff;stroke-width:1.81746"
     d="m 422.5602,-131.19908 c -86.88725,-13.86636 -158.9318,-55.09504 -216.24474,-123.74956 -67.7859,-81.19996 -94.12418,-192.56888 -71.53602,-302.48324 27.03509,-131.55325 136.38994,-240.90054 267.78868,-267.77019 81.20604,-16.60578 167.19056,-6.31647 236.15368,28.25926 82.57348,41.39948 149.2642,117.74029 176.3892,201.91258 13.76044,42.70039 17.96672,74.03771 16.7562,124.83655 -1.2172,51.08524 -7.52228,84.0416 -23.86492,124.74256 -17.76976,44.25524 -39.89528,76.81924 -78.26472,115.18868 -55.51088,55.51088 -108.9962,83.79928 -185.74812,98.24224 -25.57592,4.8128 -93.5376,5.27236 -121.42924,0.8212 z m 157.1976,-291.7276 164.45996,-164.46744 -20.0502,-20.45942 c -11.02764,-11.25268 -28.97088,-29.66033 -39.87396,-40.90588 -10.903,-11.24556 -20.6814,-20.44647 -21.72972,-20.44647 -1.0484,0 -57.31704,55.4065 -125.04156,123.12553 l -123.13556,123.12556 -60.44581,-60.42564 -60.44582,-60.4256 -40.42597,40.45592 c -22.23428,22.2508 -40.42596,41.2644 -40.42596,42.25252 0,1.778 199.96592,202.6384 201.73604,202.6384 0.5052,0 74.9256,-74.01036 165.37856,-164.46748 z"
     id="path2" />
  <path
     style="fill:#ffffff;stroke-width:1.81746"
     d="m 432.55624,-129.48096 c -91.1089,-12.51732 -167.1568,-54.69168 -226.24078,-125.46768 -67.86946,-81.30004 -94.07892,-192.15292 -71.51753,-302.48324 26.87495,-131.42467 136.34552,-240.89524 267.77019,-267.77019 110.39188,-22.57398 221.1378,3.6102 302.48324,71.51753 59.86608,49.97634 99.41372,111.97391 117.13376,183.62694 8.29588,33.54536 9.30428,43.2852 9.30428,89.86788 0,48.63488 -1.9896,65.47988 -11.91348,100.8692 -16.13104,57.52412 -43.17472,102.3944 -89.83836,149.05808 -54.69396,54.69396 -108.31016,83.44536 -181.7724,97.47448 -15.86124,3.0288 -28.62936,3.9328 -61.79376,4.37396 -22.99092,0.304 -47.11772,-0.176 -53.61516,-1.0668 z m 147.05964,-293.30376 164.31796,-164.32548 -39.73792,-41.04784 c -21.85584,-22.57631 -40.54628,-41.04785 -41.53424,-41.04785 -0.988,0 -57.26544,55.39507 -125.06104,123.10013 l -123.26468,123.10016 -60.42095,-60.40076 -60.42096,-60.4008 -37.32897,37.71548 c -20.53094,20.74352 -38.88474,39.595 -40.78624,41.8922 l -3.45724,4.17672 100.76951,100.7818 c 55.42323,55.42996 101.18289,100.78176 101.68813,100.78176 0.5052,0 74.86176,-73.94648 165.23664,-164.32552 z"
     id="path3" />
</svg>
